<svg width="118" height="32" viewBox="0 0 118 32" fill="none" xmlns="http://www.w3.org/2000/svg">
<g clip-path="url(#clip0)">
<path d="M17.7063 8.96215C17.7064 8.75148 17.6601 8.54336 17.5705 8.3525C17.481 8.16164 17.3504 7.99269 17.1881 7.85762C16.8614 7.55584 16.4314 7.3897 15.9858 7.39312C15.6753 7.39267 15.3711 7.47975 15.1083 7.64429C14.8179 7.82918 14.5979 8.10527 14.4829 8.42882L8.95515 20.6645L3.40318 8.39097C3.28176 8.08617 3.0683 7.82644 2.79227 7.64769C2.51624 7.46894 2.19128 7.37999 1.8623 7.39312C1.39102 7.39081 0.934271 7.55545 0.57364 7.85762C0.394768 7.98988 0.249645 8.16222 0.150016 8.36067C0.0503862 8.55912 -0.000955108 8.77812 0.000130292 8.99999C-0.00285892 9.22135 0.0456234 9.44041 0.141781 9.64001L7.05152 24.2705L4.58128 29.5144C4.47577 29.738 4.41478 29.9799 4.40164 30.2267C4.39881 30.4332 4.4445 30.6375 4.53508 30.8233C4.62566 31.0091 4.75861 31.1713 4.92331 31.2968C5.24572 31.5745 5.65787 31.7272 6.08416 31.7269C6.39799 31.726 6.70453 31.6326 6.96514 31.4585C7.24644 31.2713 7.46441 31.0039 7.59047 30.6912L17.5509 9.64001C17.6494 9.42727 17.7023 9.1964 17.7063 8.96215Z" fill="#0747A6"/>
<path d="M52.4554 23.6616C52.4452 23.8825 52.4815 24.1031 52.5618 24.3093C52.6421 24.5155 52.7647 24.7027 52.9218 24.859C53.0856 25.0094 53.2778 25.1261 53.4871 25.2023C53.6964 25.2785 53.9187 25.3126 54.1414 25.3028C54.6263 25.325 55.1008 25.1584 55.4646 24.8383C55.6308 24.6843 55.7616 24.4964 55.848 24.2873C55.9345 24.0783 55.9746 23.8531 55.9655 23.6271V9.10671C55.9795 8.87047 55.9437 8.63395 55.8604 8.41232C55.7771 8.1907 55.6481 7.98887 55.4819 7.81983C55.1085 7.51908 54.642 7.35673 54.1618 7.36049C53.6817 7.36426 53.2178 7.53391 52.8492 7.84048C52.6815 8.0049 52.5502 8.20255 52.4639 8.42066C52.3776 8.63877 52.3382 8.87249 52.3483 9.10671V17.4887C52.3483 18.9889 51.9245 20.1909 51.0769 21.0947C50.6424 21.5483 50.1155 21.904 49.5315 22.1378C48.9475 22.3717 48.3199 22.4782 47.6911 22.4504C46.4957 22.4504 45.6182 22.1063 45.0412 21.4491C44.4643 20.7919 44.181 19.7493 44.181 18.3523V9.10671C44.1935 8.87062 44.157 8.63451 44.0737 8.4131C43.9905 8.19169 43.8624 7.98973 43.6973 7.81983C43.3392 7.49988 42.8684 7.33412 42.3879 7.35877C41.8975 7.33073 41.4159 7.4964 41.0474 7.81983C40.8811 7.98887 40.7522 8.1907 40.6689 8.41232C40.5856 8.63395 40.5498 8.87047 40.5637 9.10671V18.397C40.5637 23.0583 42.6885 25.3889 46.938 25.3889C48.0685 25.4047 49.1847 25.1348 50.1821 24.6044C51.1489 24.082 51.9397 23.2873 52.4554 22.3196V23.6616Z" fill="#0747A6"/>
<path d="M69.7434 22.6154L68.7415 22.5466C67.7845 22.4743 67.0728 22.1784 66.6099 21.6519C66.1469 21.1255 65.9189 20.31 65.9189 19.1917V10.5552H69.467C69.8842 10.5846 70.2978 10.4623 70.6313 10.2111C70.899 9.93358 71.0486 9.56367 71.0486 9.17882C71.0486 8.79398 70.899 8.42407 70.6313 8.14657C70.3053 7.87861 69.8889 7.74448 69.467 7.7715H65.9085V4.10011C65.922 3.86243 65.8843 3.62464 65.7979 3.40268C65.7115 3.18072 65.5784 2.97974 65.4076 2.81323C65.0425 2.49565 64.5686 2.33049 64.0844 2.35215C63.8464 2.33957 63.6083 2.37382 63.3836 2.45293C63.1589 2.53205 62.9521 2.65448 62.775 2.81323C62.6099 2.98313 62.4817 3.18509 62.3985 3.4065C62.3153 3.62791 62.2788 3.86402 62.2913 4.10011V7.77495H60.1424C59.7204 7.74757 59.304 7.88174 58.9781 8.15001C58.8371 8.28103 58.7271 8.44159 58.656 8.62011C58.5849 8.79862 58.5545 8.99063 58.5669 9.18227C58.5669 10.0998 59.0921 10.5586 60.1424 10.5586H62.2913V18.9405C62.2913 20.9638 62.7692 22.4927 63.725 23.5272C64.6786 24.5595 66.1435 25.1513 68.0575 25.2924L69.0248 25.3646C69.587 25.4436 70.1597 25.3373 70.6555 25.0618C70.8351 24.9435 70.9808 24.7808 71.0783 24.5896C71.1758 24.3984 71.2218 24.1853 71.2117 23.9711C71.2217 23.7988 71.1962 23.6263 71.1368 23.4642C71.0774 23.302 70.9853 23.1537 70.8663 23.0283C70.5509 22.7659 70.1543 22.62 69.7434 22.6154Z" fill="#0747A6"/>
<path d="M97.1752 -0.145955C96.6988 -0.163096 96.2328 -0.00511375 95.8658 0.297908C95.6877 0.463351 95.5488 0.666222 95.4591 0.891784C95.3695 1.11735 95.3314 1.35994 95.3476 1.60199V23.651C95.3298 23.8902 95.3672 24.1302 95.457 24.3527C95.5468 24.5752 95.6867 24.7742 95.8658 24.9345C96.2367 25.2289 96.7012 25.3815 97.1752 25.3646C97.6432 25.3834 98.1018 25.2303 98.4639 24.9345C98.6384 24.7715 98.7741 24.5716 98.8608 24.3494C98.9475 24.1273 98.983 23.8886 98.9648 23.651V1.60888C98.9815 1.3683 98.9454 1.12699 98.8589 0.90176C98.7723 0.676534 98.6375 0.472824 98.4639 0.304797C98.1068 -0.00198328 97.6465 -0.162994 97.1752 -0.145955Z" fill="#0747A6"/>
<path d="M116.422 22.3678L109.402 16.1949L115.78 10.3799C115.962 10.2251 116.111 10.0342 116.216 9.81912C116.32 9.60407 116.379 9.36966 116.388 9.13082C116.377 8.68936 116.197 8.26882 115.883 7.95625C115.57 7.64369 115.148 7.46303 114.705 7.45168C114.258 7.47891 113.837 7.67015 113.524 7.98845L105.353 15.5893V1.6091C105.37 1.36853 105.333 1.12721 105.247 0.901988C105.16 0.676762 105.026 0.473052 104.852 0.305025C104.494 0.000726908 104.034 -0.157802 103.563 -0.13886C103.087 -0.155355 102.621 0.00257179 102.254 0.305025C102.075 0.470147 101.935 0.672859 101.845 0.898439C101.755 1.12402 101.716 1.36679 101.732 1.6091V23.6306C101.715 23.8722 101.753 24.1144 101.843 24.3395C101.933 24.5646 102.072 24.7668 102.25 24.9313C102.616 25.2364 103.083 25.3957 103.56 25.3786C104.031 25.3979 104.492 25.238 104.848 24.9313C105.022 24.7642 105.157 24.5611 105.244 24.3364C105.331 24.1116 105.366 23.8707 105.349 23.6306V17.0138L114.27 24.8659C114.596 25.184 115.033 25.363 115.489 25.3648C115.699 25.3652 115.907 25.3209 116.098 25.2348C116.289 25.1488 116.46 25.023 116.598 24.8659C116.903 24.5485 117.071 24.1247 117.065 23.6856C117.068 23.4314 117.011 23.1801 116.899 22.9514C116.788 22.7227 116.624 22.5229 116.422 22.3678Z" fill="#0747A6"/>
<path d="M20.3666 25.375H29.6532C31.2352 25.4087 32.7983 25.0278 34.186 24.2705C35.4803 23.5368 36.5275 22.4376 37.1952 21.1118C37.8894 19.6127 38.2488 17.9815 38.2488 16.3307C38.2488 14.6799 37.8894 13.0487 37.1952 11.5497C36.5275 10.2238 35.4803 9.1247 34.186 8.39096C32.7983 7.63365 31.2352 7.25276 29.6532 7.28643H26.7201C25.139 7.25109 23.5766 7.63211 22.1907 8.39096C20.8948 9.12272 19.8472 10.2224 19.1815 11.5497C18.4436 13.0468 18.0808 14.6997 18.1243 16.3669V21.4008C18.1243 24.3187 18.8706 25.375 20.3666 25.375ZM23.0683 11.7664C23.9251 10.7032 25.1412 10.1768 26.7201 10.1768H29.6532C31.2287 10.1768 32.4448 10.7032 33.305 11.7664C34.1653 12.8297 34.5971 14.3505 34.5971 16.3497C34.5971 18.3488 34.1722 19.9041 33.3258 20.9501C32.4793 21.9961 31.2528 22.5191 29.6532 22.5191H21.8211C21.8211 22.5191 21.7761 18.3695 21.7761 16.3497C21.7761 14.3299 22.208 12.8228 23.0683 11.7664Z" fill="#0747A6"/>
<path d="M88.6726 8.39096C87.2868 7.63211 85.7244 7.25109 84.1433 7.28643H81.2136C79.6315 7.25227 78.0683 7.6332 76.6808 8.39096C75.3849 9.12272 74.3373 10.2224 73.6716 11.5497C72.9752 13.0481 72.6145 14.6795 72.6145 16.3307C72.6145 17.9819 72.9752 19.6133 73.6716 21.1118C74.3373 22.4391 75.3849 23.5388 76.6808 24.2705C78.0683 25.0283 79.6315 25.4092 81.2136 25.375H90.4968C91.9962 25.375 92.7425 24.3015 92.7425 21.3836V16.3497C92.7849 14.6822 92.421 13.0293 91.6818 11.5325C91.0144 10.2108 89.9668 9.11715 88.6726 8.39096ZM89.0458 22.5191H81.2136C79.614 22.5191 78.3875 21.9996 77.5376 20.9501C76.6877 19.9006 76.2697 18.3695 76.2697 16.3497C76.2697 14.3299 76.6981 12.8228 77.5583 11.7664C78.4186 10.7101 79.6312 10.1768 81.2136 10.1768H84.1433C85.7187 10.1768 86.9383 10.7032 87.7985 11.7664C88.6588 12.8297 89.0872 14.3505 89.0872 16.3497C89.0872 18.3488 89.0458 22.5191 89.0458 22.5191Z" fill="#0747A6"/>
</g>
<defs>
<clipPath id="clip0">
<rect width="117.12" height="32" fill="white"/>
</clipPath>
</defs>
</svg>
